# xmcd CD database file
#
# Track frame offsets:
#	150
#	22815
#	43655
#	61757
#	79737
#	94072
#	118020
#	135655
#	156890
#	176810
#	198607
#	224955
#	255810
#	289055
#
# Disc length: 3858 seconds
#
# Revision: 7
# Processed by: cddbd v1.5PL3 Copyright (c) Steve Scherf et al.
# Submitted via: CDex 1.51
#
DISCID=c60f100e
DTITLE=????? - TOP Of THE POPS - DISC 2
DYEAR=2002
DGENRE=Rock
TTITLE0=MERRY X'MAS IN SUMMER
TTITLE1=BAN BAN BAN
TTITLE2=???????? - SKIPPED BEAT
TTITLE3=ONE DAY
TTITLE4=?
TTITLE5=??????? - I FEEL ECHO
TTITLE6=???? - THE WANDERIN' STREET
TTITLE7=??????
TTITLE8=????????
TTITLE9=????? - ????? and Mr.Chldren
TTITLE10=???? - ????? and ?????
TTITLE11=??????? - Live at ?????????????
TTITLE12=?????
TTITLE13=Data track
EXTD=YEAR: 2002
EXTT0=
EXTT1=
EXTT2=
EXTT3=
EXTT4=
EXTT5=
EXTT6=
EXTT7=
EXTT8=
EXTT9=
EXTT10=
EXTT11=
EXTT12=
EXTT13=
PLAYORDER=
